<svg xmlns="http://www.w3.org/2000/svg" viewBox="0 0 63.5 21.167" height="80" width="240"><path d="M58.446 12.97q.402 0 .74.107.34.095.52.222.105.074.19.074.095 0 .158-.095.075-.106.096-.296h.222q-.042.54-.042 1.862h-.223q-.095-.698-.423-1.164-.317-.476-.931-.476-.318 0-.53.18-.2.18-.2.497 0 .36.243.625.243.254.762.624l.307.222q.645.487.952.868.307.381.307.953 0 .465-.275.825-.265.36-.72.55-.455.19-1.005.19-.582 0-.995-.221-.339-.17-.487-.223-.106-.031-.19.074-.074.096-.117.297h-.222q.042-.603.042-2.117h.223q.211 1.947 1.428 1.947.307 0 .52-.18.221-.19.221-.571 0-.296-.137-.53-.127-.232-.328-.412-.201-.18-.604-.497-.476-.381-.73-.614-.243-.233-.423-.55-.17-.318-.17-.71 0-.677.53-1.068.529-.392 1.29-.392zm-4.65 0q.805 0 1.165.414.18.2.254.518.074.318.074.857v2.847q0 .434.148.604.159.158.53.158v.223q-1.059-.043-1.398-.043-.317 0-1.375.043v-.223q.317 0 .444-.158.127-.17.127-.604v-3.291q0-.434-.148-.656-.138-.222-.508-.222-.434 0-.741.36-.307.349-.307.867v2.942q0 .434.127.604.127.158.445.158v.223q-.974-.043-1.313-.043-.317 0-1.46.043v-.223q.38 0 .529-.158.148-.17.148-.604v-3.333q0-.487-.148-.71-.148-.222-.53-.222v-.222q.34.032.657.032.942 0 1.545-.148v.952q.476-.984 1.736-.984zm-8.017 5.695q-.677 0-1.016-.35-.328-.349-.328-.92 0-.477.243-.783.254-.318.604-.487.36-.17.91-.36.582-.201.846-.36.276-.17.276-.455v-.826q0-.444-.212-.687-.201-.254-.635-.254-.508 0-.773.254.297.105.455.317.17.212.17.497 0 .36-.244.572-.243.212-.592.212-.37 0-.572-.233-.2-.233-.2-.582 0-.297.137-.498.148-.211.444-.391.286-.17.699-.265.423-.095.92-.095.52 0 .9.106.381.106.635.36.233.232.307.571.085.339.085.92v2.88q0 .253.042.36.053.105.19.105.16 0 .381-.18l.106.18q-.476.392-1.164.392-.582 0-.815-.233-.233-.233-.243-.625-.53.858-1.556.858zm.815-.678q.413 0 .72-.434v-2.17q-.127.213-.54.467-.413.264-.625.529-.211.264-.211.762 0 .434.18.645.18.201.476.201zM42.43 10.39q.444 0 .698.222.265.211.265.592t-.265.604q-.254.211-.698.211-.445 0-.71-.211-.253-.223-.253-.604 0-.38.254-.592.264-.222.709-.222zm.825 7.217q0 .434.149.604.158.158.529.158v.223q-1.059-.043-1.408-.043-.328 0-1.47.043v-.223q.38 0 .528-.158.148-.17.148-.604v-3.333q0-.487-.148-.71-.148-.222-.529-.222v-.222q.339.032.656.032.942 0 1.545-.148zm-3.5-4.635q.476 0 .72.286.243.285.243.688 0 .391-.233.645-.222.244-.593.244-.36 0-.571-.18-.212-.19-.212-.498 0-.508.466-.825-.043-.01-.127-.01-.106 0-.17.02-.402.064-.688.487-.275.423-.275.868v2.805q0 .486.233.677.243.19.762.19v.223q-.148 0-.243-.011-1.08-.032-1.44-.032-.285 0-1.301.032-.085.01-.212.01v-.222q.38 0 .529-.158.148-.17.148-.604v-3.333q0-.487-.148-.71-.148-.222-.53-.222v-.222q.34.032.657.032.942 0 1.545-.148v.984q.201-.455.582-.73.381-.286.858-.286zm-5.213.148h1.248v.212h-1.248v4.275q0 .318.105.455.117.127.36.127.455 0 .72-.635l.18.096q-.402 1.09-1.45 1.09-.699 0-1.058-.36-.223-.222-.307-.55-.074-.34-.074-.921V13.33h-.89v-.212h.89v-1.397q.878 0 1.524-.339zm-4.952-.148q.402 0 .74.106.34.095.52.222.105.074.19.074.095 0 .158-.095.075-.106.096-.296h.222q-.042.54-.042 1.862h-.223q-.095-.698-.423-1.164-.317-.476-.931-.476-.318 0-.53.18-.2.18-.2.497 0 .36.243.625.243.254.762.624l.307.222q.645.487.952.868.307.381.307.953 0 .465-.275.825-.265.36-.72.55-.455.19-1.005.19-.582 0-.995-.221-.339-.17-.487-.223-.106-.031-.19.074-.074.096-.117.297h-.222q.042-.603.042-2.117h.223q.211 1.947 1.428 1.947.307 0 .519-.18.222-.19.222-.571 0-.296-.137-.53-.127-.232-.328-.412-.201-.18-.604-.497-.476-.381-.73-.614-.243-.233-.423-.55-.17-.318-.17-.71 0-.677.53-1.068.529-.392 1.29-.392zm-4.317 4.9q.868 0 1.397-.847l.19.064q-.211.688-.762 1.175-.54.476-1.354.476-1.122 0-1.789-.71-.656-.719-.656-2.116 0-1.429.709-2.18.709-.762 1.884-.762 1.99 0 1.99 2.35h-2.974q-.011.158-.011.497 0 .698.19 1.164.202.466.508.677.318.212.678.212zm-.445-4.678q-.38 0-.635.476-.243.466-.307 1.45h1.662q.021-.836-.17-1.376-.18-.55-.55-.55zm-3.785 4.233c0 .325.05.561.148.71.099.148.275.222.53.222v.222a6.797 6.797 0 0 0-.657-.032c-.628 0-1.143.05-1.545.148v-.91c-.24.635-.698.953-1.376.953-.663 0-1.192-.24-1.587-.72-.388-.487-.579-1.217-.572-2.19 0-.622.1-1.144.297-1.567.204-.43.483-.751.836-.963.36-.219.769-.328 1.227-.328.515 0 .907.134 1.175.402v-1.8l-.01-1.833h1.525zm-2.466.858a.86.86 0 0 0 .614-.254c.183-.17.293-.399.328-.688v-3.704c-.176-.24-.434-.36-.772-.36-.374 0-.664.215-.868.645-.205.43-.304 1.073-.297 1.927-.007.86.074 1.481.244 1.862.176.381.427.572.751.572zm-4.962-.413q.867 0 1.397-.847l.19.064q-.212.688-.762 1.175-.54.476-1.355.476-1.121 0-1.788-.71-.656-.719-.656-2.116 0-1.429.709-2.18.709-.762 1.884-.762 1.99 0 1.99 2.35h-2.975q-.01.158-.01.497 0 .698.19 1.164.201.466.508.677.318.212.678.212zm-.445-4.678q-.38 0-.635.476-.243.466-.307 1.45h1.662q.021-.836-.17-1.376-.18-.55-.55-.55zm-6.7 2.37v1.842q0 .424.086.625.095.19.317.254.233.063.73.074v.233q-1.301-.032-1.936-.032-.53 0-1.334.021l-.339.01v-.211q.35-.021.508-.085.17-.063.223-.243.063-.18.063-.582v-5.25q0-.402-.063-.582-.053-.18-.223-.243-.158-.064-.508-.085v-.211q.54.031 1.61.031l1.174-.01q.211-.01.487-.01 1.428 0 2.18.57.751.562.751 1.514 0 .582-.296 1.122-.296.53-1.006.889-.698.36-1.862.36zm.657-4.254q-.286 0-.423.074-.127.074-.18.265-.053.19-.053.571v3.133h.455q.857 0 1.185-.55.328-.55.328-1.492 0-1.027-.307-1.514-.296-.487-1.005-.487zm21.298-1.241q.868 0 1.397-.847l.19.064q-.21.688-.761 1.174-.54.477-1.355.477-1.122 0-1.788-.71-.657-.72-.657-2.116 0-1.429.71-2.18.709-.762 1.883-.762 1.99 0 1.99 2.35H27.06q-.01.158-.01.497 0 .698.19 1.164.201.466.508.677.317.212.677.212zm-.444-4.678q-.381 0-.635.476-.244.466-.307 1.45H28.7q.022-.836-.169-1.376-.18-.55-.55-.55zm-6.947.762c.317-.656.892-.984 1.725-.984.55 0 .938.137 1.164.413.12.134.204.31.254.529.056.211.085.494.085.846v2.847c0 .29.049.49.148.604.098.105.275.158.529.158v.223c-.734-.029-1.2-.043-1.397-.043-.24 0-.699.014-1.376.043v-.223c.212 0 .36-.053.445-.158.084-.113.127-.314.127-.604V6.512c0-.29-.05-.508-.149-.656-.091-.148-.26-.223-.508-.223a.963.963 0 0 0-.751.35c-.198.225-.296.515-.296.868v2.952c-1.088.027-.304 0-1.524 0V3.781c0-.324-.053-.56-.16-.709-.098-.148-.27-.222-.518-.222v-.222c.226.021.445.032.656.032.614 0 1.13-.05 1.546-.149zm-2.616-2.857q-.074 1.005-.074 1.799 0 .497.032.804h-.243q-.254-1.302-.699-1.83-.434-.53-1.196-.53h-.243v6.043q0 .445.085.646.095.2.317.275.233.063.73.074v.212q-1.333-.032-2.01-.032-.667 0-1.937.032v-.212q.497-.01.72-.074.232-.074.317-.275.095-.201.095-.646V3.538h-.233q-.508 0-.868.222-.349.222-.603.741-.254.508-.434 1.397h-.243q.032-.307.032-.804 0-.794-.074-1.8.963.032 3.27.032t3.26-.031z" aria-label="Pedestrians" fill="#505050"/></svg>